<svg width="26" height="27" viewBox="0 0 26 27" fill="none" xmlns="http://www.w3.org/2000/svg">
<path fill-rule="evenodd" clip-rule="evenodd" d="M23.625 26.25C23.625 26.25 25.75 26.25 25.75 24.125C25.75 22 23.625 15.625 13 15.625C2.375 15.625 0.25 22 0.25 24.125C0.25 26.25 2.375 26.25 2.375 26.25H23.625ZM2.38563 24.244V24.2397V24.244ZM2.42175 24.125H23.5782C23.5882 24.1238 23.5981 24.1224 23.608 24.1208L23.625 24.1165C23.6229 23.5938 23.2978 22.0212 21.857 20.5805C20.4715 19.195 17.8641 17.75 13 17.75C8.13375 17.75 5.5285 19.195 4.143 20.5805C2.70225 22.0212 2.37925 23.5938 2.375 24.1165C2.39055 24.1195 2.40614 24.1223 2.42175 24.125ZM23.6165 24.244V24.2397V24.244ZM13 11.375C14.1272 11.375 15.2082 10.9272 16.0052 10.1302C16.8022 9.33317 17.25 8.25217 17.25 7.125C17.25 5.99783 16.8022 4.91683 16.0052 4.1198C15.2082 3.32277 14.1272 2.875 13 2.875C11.8728 2.875 10.7918 3.32277 9.9948 4.1198C9.19777 4.91683 8.75 5.99783 8.75 7.125C8.75 8.25217 9.19777 9.33317 9.9948 10.1302C10.7918 10.9272 11.8728 11.375 13 11.375ZM19.375 7.125C19.375 8.81575 18.7034 10.4373 17.5078 11.6328C16.3123 12.8284 14.6908 13.5 13 13.5C11.3092 13.5 9.68774 12.8284 8.49219 11.6328C7.29665 10.4373 6.625 8.81575 6.625 7.125C6.625 5.43425 7.29665 3.81274 8.49219 2.61719C9.68774 1.42165 11.3092 0.75 13 0.75C14.6908 0.75 16.3123 1.42165 17.5078 2.61719C18.7034 3.81274 19.375 5.43425 19.375 7.125Z" fill="#272727"/>
</svg>
